<svg viewBox="0 0 82 32" xmlns="http://www.w3.org/2000/svg" xmlns:xlink="http://www.w3.org/1999/xlink" width="82.000000" height="32.000000" fill="none" customFrame="#000000">
	<defs>
		<filter id="pixso_custom_mask_type_alpha">
			<feColorMatrix type="matrix" values="0 0 0 0 1 0 0 0 0 1 0 0 0 0 1 0 0 0 1 0 " />
		</filter>
	</defs>
	<mask id="mask_0" width="5.925174" height="9.907994" x="76.074219" y="15.319336" maskUnits="userSpaceOnUse">
		<g filter="url(#pixso_custom_mask_type_alpha)">
			<path id="Clip 16" d="M76.0742 15.3193L81.9994 15.3193L81.9994 25.2273L76.0742 25.2273L76.0742 15.3193Z" fill="rgb(196,196,196)" fill-rule="evenodd" />
		</g>
	</mask>
	<g id="编组">
		<path id="Fill 1" d="M7.11199 12.7999L5.82848 16.4059L0 15.4149L6.86987 20.3281L31.8244 0L7.11199 12.7999Z" fill="rgb(199,0,11)" fill-rule="evenodd" />
		<path id="Fill 2" d="M7.93262 21.0872L23.1555 31.9999L16.7066 21.5619L30.0464 2.89941L7.93262 21.0872Z" fill="rgb(219,218,218)" fill-rule="evenodd" />
		<g id="编组">
			<path id="Fill 3" d="M32.4521 13.0933L33.9576 13.0933L33.9576 17.7476C34.2351 17.3839 34.5021 17.0093 34.7582 16.6562L37.2778 13.0933L38.9647 13.0933L35.9433 17.1699L39.2208 22.3485L37.5129 22.3485L34.9932 18.2612L33.9576 19.4276L33.9576 22.3485L32.4521 22.3485L32.4521 13.0933Z" fill="rgb(0,0,0)" fill-rule="evenodd" />
			<path id="Fill 5" d="M40.4584 21.8136C40.1168 21.3857 39.9355 20.733 39.9355 19.877L39.9355 15.4473L41.4086 15.4473L41.4086 19.7699C41.4086 20.2728 41.494 20.6475 41.6649 20.872C41.8463 21.1074 42.1026 21.2144 42.4442 21.2144C43.0314 21.2144 43.5974 20.9043 44.1419 20.2728L44.1419 15.4473L45.6257 15.4473L45.6257 20.6152C45.6257 21.1929 45.6364 21.7708 45.6791 22.3485L44.3019 22.3485C44.2485 22.0812 44.2058 21.7281 44.1738 21.2894C43.971 21.5248 43.7681 21.7173 43.5759 21.8779C43.3731 22.0489 43.1382 22.1882 42.8712 22.295C42.6044 22.4128 42.2948 22.4771 41.9639 22.4771C41.3126 22.4771 40.811 22.2523 40.4584 21.8136" fill="rgb(0,0,0)" fill-rule="evenodd" />
			<path id="Fill 7" d="M47.5268 17.2127C47.5268 16.56 47.5161 15.9821 47.4844 15.4472L48.8719 15.4472C48.8936 15.597 48.915 15.779 48.936 15.9928C48.9575 16.2069 48.9789 16.378 48.9894 16.5278C49.1818 16.2817 49.3845 16.0784 49.5873 15.918C49.7797 15.7468 50.0145 15.6077 50.2815 15.4899C50.559 15.3831 50.8578 15.3188 51.1996 15.3188C51.84 15.3188 52.3311 15.5434 52.6834 15.9821C53.0358 16.4317 53.2065 17.0737 53.2065 17.9295L53.2065 22.3484L51.7334 22.3484L51.7334 18.0365C51.7334 17.0629 51.381 16.5708 50.6978 16.5708C50.3774 16.5708 50.0892 16.6563 49.8116 16.8381C49.5447 17.0094 49.2779 17.2447 49.0109 17.5443L49.0109 22.3484L47.5268 22.3484L47.5268 17.2127Z" fill="rgb(0,0,0)" fill-rule="evenodd" />
			<path id="Fill 9" d="M54.9473 15.4472C54.9794 16.0678 55.0007 16.6241 55.0007 17.1377L55.0007 25.2268L56.4847 25.0876L56.4847 22.2416C56.9117 22.4019 57.3494 22.4769 57.7871 22.4769C58.3955 22.4769 58.94 22.3272 59.3992 22.0383C59.8688 21.7385 60.2321 21.3106 60.4882 20.7436C60.7444 20.1657 60.8725 19.481 60.8725 18.6785C60.8725 17.9082 60.7659 17.266 60.5308 16.7739C60.3065 16.2709 60.0078 15.9073 59.6449 15.6717C59.2711 15.4364 58.8761 15.3188 58.4384 15.3188C57.691 15.3188 57.029 15.6612 56.4527 16.3245C56.4313 16.0249 56.3993 15.736 56.3459 15.4472L54.9473 15.4472ZM59.3561 18.7639C59.3561 19.5986 59.2069 20.2299 58.9077 20.6578C58.5982 21.0966 58.1605 21.3105 57.5839 21.3105C57.3919 21.3105 57.1996 21.2892 56.9967 21.2462C56.8045 21.1927 56.6336 21.1394 56.4844 21.0644L56.4844 17.3624C56.7085 17.1269 56.9328 16.9343 57.1783 16.7845C57.4237 16.6454 57.6907 16.5704 57.9789 16.5704C58.3952 16.5704 58.737 16.7417 58.9825 17.0841C59.2281 17.4372 59.3561 17.9936 59.3561 18.7639Z" fill="rgb(0,0,0)" fill-rule="evenodd" />
			<path id="Fill 11" d="M63.358 19.0968L67.6073 19.0968L67.6073 18.6794C67.6073 18.0697 67.511 17.5025 67.3083 16.9996C67.1159 16.486 66.8065 16.0903 66.4009 15.78C65.9843 15.4804 65.4719 15.3198 64.8635 15.3198C64.2654 15.3198 63.7531 15.4696 63.2939 15.7585C62.8455 16.0473 62.4934 16.4647 62.2476 17.0211C61.9915 17.5668 61.8633 18.2195 61.8633 18.9898C61.8633 19.7175 61.9808 20.338 62.2264 20.8624C62.4612 21.3866 62.8135 21.7824 63.2939 22.0606C63.7638 22.3389 64.3402 22.4779 65.034 22.4779C65.9416 22.4779 66.7531 22.2854 67.479 21.911L67.1588 20.8301C66.8599 20.9587 66.5609 21.0657 66.2405 21.1512C65.9204 21.2262 65.6107 21.2688 65.3012 21.2688C64.0732 21.2688 63.4329 20.5413 63.358 19.0968ZM65.771 16.8543C65.9952 17.1326 66.1339 17.539 66.1554 18.0955L63.4009 18.0955C63.4757 17.5498 63.6464 17.1326 63.892 16.8543C64.1483 16.576 64.4579 16.4371 64.8315 16.4371C65.2265 16.4371 65.536 16.576 65.771 16.8543Z" fill="rgb(0,0,0)" fill-rule="evenodd" />
			<path id="Fill 13" d="M69.0505 17.2127C69.0505 16.56 69.0398 15.9821 69.0078 15.4472L70.3956 15.4472C70.417 15.597 70.4384 15.779 70.4597 15.9928C70.4811 16.2069 70.5026 16.378 70.5131 16.5278C70.7052 16.2817 70.9081 16.0784 71.111 15.918C71.3031 15.7468 71.5382 15.6077 71.805 15.4899C72.0827 15.3831 72.3814 15.3188 72.723 15.3188C73.3636 15.3188 73.8547 15.5434 74.2071 15.9821C74.5592 16.4317 74.7301 17.0737 74.7301 17.9295L74.7301 22.3484L73.2568 22.3484L73.2568 18.0365C73.2568 17.0629 72.9047 16.5708 72.2105 16.5708C71.901 16.5708 71.6126 16.6563 71.3351 16.8381C71.0683 17.0094 70.8013 17.2447 70.5345 17.5443L70.5345 22.3484L69.0505 22.3484L69.0505 17.2127Z" fill="rgb(0,0,0)" fill-rule="evenodd" />
			<g id="编组" mask="url(#mask_0)">
				<path id="Fill 15" d="M76.4905 24.6489C76.8216 24.8095 77.174 24.9378 77.569 25.0555C77.9531 25.1733 78.4229 25.2268 78.9782 25.2268C79.5439 25.2268 80.0564 25.1091 80.5049 24.8843C80.9533 24.6595 81.3054 24.328 81.5619 23.8784C81.818 23.4293 81.9462 22.8836 81.9462 22.2416L81.9462 17.1485C81.9462 16.592 81.9675 16.0249 81.9996 15.4472L81.0067 15.4472L80.6968 15.768C80.5049 15.629 80.2698 15.5219 79.9923 15.4472C79.7253 15.3614 79.4478 15.3188 79.1596 15.3188C78.5083 15.3188 77.9638 15.4792 77.4941 15.7788C77.035 16.0891 76.6828 16.5278 76.4371 17.1057C76.1917 17.6726 76.0742 18.3574 76.0742 19.1386C76.0742 19.8983 76.181 20.5401 76.4051 21.0325C76.6294 21.5352 76.9282 21.899 77.2915 22.1238C77.6651 22.3592 78.0706 22.4769 78.519 22.4769C78.9567 22.4769 79.3198 22.3807 79.6295 22.1986C79.9282 22.0168 80.2164 21.7707 80.4729 21.4604L80.4729 22.1666C80.4729 22.8298 80.334 23.3115 80.0457 23.6003C79.7575 23.8894 79.341 24.039 78.7965 24.039C78.1669 24.039 77.5049 23.8572 76.8109 23.504L76.4905 24.6489ZM79.7902 20.9783C80.0572 20.8178 80.292 20.6252 80.4736 20.4006L80.4736 16.8053C80.3132 16.7092 80.1213 16.6234 79.9077 16.5592C79.6943 16.5057 79.4807 16.4739 79.2671 16.4739C78.9255 16.4739 78.6373 16.5699 78.381 16.7732C78.1247 16.9658 77.9325 17.2654 77.7936 17.6613C77.655 18.0464 77.5802 18.5388 77.5802 19.1058C77.5802 19.844 77.7084 20.3789 77.9538 20.7215C78.1995 21.0531 78.5197 21.2244 78.904 21.2244C79.2242 21.2244 79.5234 21.1389 79.7902 20.9783Z" fill="rgb(0,0,0)" fill-rule="evenodd" />
			</g>
		</g>
	</g>
</svg>
